<svg width="607" height="177" viewBox="0 0 607 177" fill="none" xmlns="http://www.w3.org/2000/svg">
<path fill-rule="evenodd" clip-rule="evenodd" d="M69.2297 18.9025L81.5653 6.56693L88.1322 0L94.6995 6.56693L107.035 18.9025C113.239 25.107 115.626 33.7406 114.196 41.814C121.583 40.4867 129.446 42.3564 135.493 47.4244L128.886 54.0314C122.474 49.1864 113.248 49.6033 107.322 55.2835C107.226 55.3818 107.132 55.4808 107.035 55.5775L94.6995 67.9132L104.847 78.0608L98.2799 84.6278L69.2297 55.5775C59.144 45.4919 59.144 28.9882 69.2297 18.9025ZM100.751 48.7207C100.668 48.8016 100.584 48.8814 100.501 48.9634L88.1258 61.3394L75.797 49.0106C69.3359 42.5499 69.3359 31.9302 75.797 25.4695L88.1322 13.1339L100.468 25.4695C106.833 31.8346 106.927 42.2358 100.751 48.7207Z" fill="#E5D4C6"/>
<path fill-rule="evenodd" clip-rule="evenodd" d="M18.9026 107.275L6.56693 94.9394L0 88.3725L6.56693 81.8052L18.9026 69.4699C25.107 63.2655 33.7406 60.8787 41.814 62.3089C40.4867 54.9214 42.3564 47.0585 47.4244 41.0112L54.0314 47.6182C49.1864 54.0306 49.6033 63.2564 55.2835 69.1831C55.3818 69.2783 55.4808 69.3728 55.5776 69.4699L67.9132 81.8052L78.0608 71.6579L84.6278 78.2248L55.5776 107.275C45.4919 117.361 28.9882 117.361 18.9026 107.275ZM48.7208 75.7542C48.8016 75.8373 48.8814 75.9208 48.9634 76.0032L61.3395 88.3789L49.0106 100.708C42.5499 107.169 31.9302 107.169 25.4695 100.708L13.1339 88.3725L25.4695 76.0369C31.8346 69.6718 42.2358 69.5777 48.7208 75.7542Z" fill="#E5D4C6"/>
<path fill-rule="evenodd" clip-rule="evenodd" d="M107.275 157.602L94.9394 169.938L88.3721 176.505L81.8052 169.938L69.4696 157.602C63.2651 151.398 60.8787 142.764 62.3085 134.691C54.9214 136.018 47.0585 134.148 41.0112 129.08L47.6182 122.473C54.0302 127.318 63.256 126.901 69.1831 121.221C69.2783 121.123 69.3728 121.024 69.4696 120.927L81.8052 108.591L71.6575 98.4438L78.2248 91.8768L107.275 120.927C117.36 131.013 117.36 147.516 107.275 157.602ZM75.7542 127.784C75.8369 127.703 75.9208 127.623 76.0029 127.541L88.3789 115.165L100.708 127.494C107.169 133.955 107.169 144.574 100.708 151.035L88.3721 163.371L76.0369 151.035C69.6718 144.67 69.5777 134.269 75.7542 127.784Z" fill="#E5D4C6"/>
<path fill-rule="evenodd" clip-rule="evenodd" d="M157.602 69.23L169.938 81.5653L176.505 88.1326L169.938 94.6995L157.602 107.035C151.398 113.24 142.764 115.626 134.691 114.196C136.018 121.583 134.148 129.446 129.08 135.493L122.473 128.886C127.318 122.474 126.901 113.249 121.221 107.322C121.123 107.226 121.024 107.132 120.927 107.035L108.592 94.6995L98.4439 104.847L91.877 98.2802L120.927 69.23C131.013 59.1444 147.517 59.1444 157.602 69.23ZM127.784 100.751C127.703 100.668 127.623 100.584 127.541 100.502L115.165 88.1257L127.494 75.797C133.955 69.3362 144.575 69.3362 151.035 75.797L163.371 88.1326L151.035 100.468C144.67 106.833 134.269 106.927 127.784 100.751Z" fill="#E5D4C6"/>
<path d="M243.431 162.002C242.039 162.002 240.695 161.822 239.402 161.462C238.109 161.101 237.052 160.579 236.231 159.895C235.41 159.211 235 158.421 235 157.526V153.161H236.045C236.418 155.698 237.201 157.526 238.395 158.645C239.589 159.764 241.255 160.324 243.394 160.324C244.837 160.324 245.981 160.013 246.826 159.391C247.672 158.769 248.095 157.874 248.095 156.705C248.095 155.71 247.784 154.864 247.162 154.168C246.54 153.472 245.57 152.713 244.252 151.893L239.663 149.132C237.997 148.162 236.809 147.155 236.101 146.11C235.392 145.065 235.037 143.847 235.037 142.454C235.037 140.489 235.79 138.935 237.295 137.791C238.799 136.647 240.832 136.074 243.394 136.074C244.787 136.074 246.13 136.255 247.423 136.616C248.716 136.976 249.773 137.499 250.594 138.182C251.415 138.866 251.825 139.656 251.825 140.551V144.916H250.781C250.358 142.379 249.574 140.551 248.43 139.432C247.286 138.313 245.744 137.753 243.804 137.753C242.461 137.753 241.398 138.077 240.614 138.723C239.831 139.37 239.439 140.253 239.439 141.372C239.439 142.342 239.744 143.144 240.353 143.778C240.963 144.412 241.951 145.128 243.32 145.924L247.908 148.647C249.649 149.666 250.899 150.655 251.657 151.612C252.416 152.57 252.795 153.72 252.795 155.064C252.795 157.227 251.981 158.925 250.352 160.156C248.723 161.387 246.416 162.002 243.431 162.002ZM256.451 141.111C255.904 139.743 255.344 138.773 254.772 138.201C254.2 137.629 253.529 137.293 252.758 137.194V136.447L254.325 136.373C255.991 136.373 257.446 136.678 258.689 137.287C259.933 137.896 260.94 139.171 261.711 141.111L266.748 153.981L270.105 144.431L268.8 141.111C268.252 139.768 267.662 138.804 267.027 138.22C266.393 137.635 265.666 137.293 264.845 137.194V136.447L266.3 136.373C267.966 136.373 269.421 136.684 270.665 137.306C271.908 137.928 272.915 139.196 273.686 141.111L279.021 154.691L285.401 136.746H287.192L278.35 161.704H276.858L271.113 147.08L266.002 161.704H264.509L256.451 141.111ZM291.519 141.596C291.519 140.328 291.345 139.389 290.997 138.779C290.649 138.17 289.952 137.865 288.908 137.865H288.535V136.746H304.987C307.101 136.746 308.158 137.741 308.158 139.731V142.902H307.039C307.039 141.36 306.647 140.228 305.864 139.507C305.08 138.786 303.917 138.425 302.375 138.425H296.369V147.751H306.068V149.43H296.369V159.689H302.748C304.166 159.689 305.347 159.372 306.292 158.738C307.237 158.104 308.021 157.003 308.643 155.437L309.65 155.81L308.568 158.757C308.245 159.652 307.859 160.311 307.412 160.734C306.964 161.157 306.268 161.368 305.322 161.368H291.519V141.596ZM313.903 141.596C313.903 140.328 313.729 139.389 313.381 138.779C313.033 138.17 312.336 137.865 311.292 137.865H310.919V136.746H327.371C329.484 136.746 330.542 137.741 330.542 139.731V142.902H329.422C329.422 141.36 329.03 140.228 328.247 139.507C327.464 138.786 326.301 138.425 324.759 138.425H318.753V147.751H328.452V149.43H318.753V159.689H325.132C326.55 159.689 327.731 159.372 328.676 158.738C329.621 158.104 330.405 157.003 331.026 155.437L332.034 155.81L330.952 158.757C330.628 159.652 330.243 160.311 329.795 160.734C329.348 161.157 328.651 161.368 327.706 161.368H313.903V141.596ZM341.398 138.425H338.749C337.356 138.425 336.293 138.773 335.559 139.47C334.826 140.166 334.459 141.31 334.459 142.902H333.34V139.731C333.34 137.741 334.397 136.746 336.511 136.746H354.045V138.425H346.248V161.368H341.398V138.425ZM364.379 162.002C362.986 162.002 361.643 161.822 360.349 161.462C359.056 161.101 357.999 160.579 357.178 159.895C356.358 159.211 355.947 158.421 355.947 157.526V153.161H356.992C357.365 155.698 358.148 157.526 359.342 158.645C360.536 159.764 362.202 160.324 364.341 160.324C365.784 160.324 366.928 160.013 367.773 159.391C368.619 158.769 369.042 157.874 369.042 156.705C369.042 155.71 368.731 154.864 368.109 154.168C367.487 153.472 366.517 152.713 365.199 151.893L360.61 149.132C358.944 148.162 357.756 147.155 357.048 146.11C356.339 145.065 355.985 143.847 355.985 142.454C355.985 140.489 356.737 138.935 358.242 137.791C359.746 136.647 361.779 136.074 364.341 136.074C365.734 136.074 367.077 136.255 368.37 136.616C369.663 136.976 370.721 137.499 371.541 138.182C372.362 138.866 372.772 139.656 372.772 140.551V144.916H371.728C371.305 142.379 370.521 140.551 369.377 139.432C368.233 138.313 366.692 137.753 364.752 137.753C363.408 137.753 362.345 138.077 361.562 138.723C360.779 139.37 360.387 140.253 360.387 141.372C360.387 142.342 360.691 143.144 361.3 143.778C361.91 144.412 362.898 145.128 364.267 145.924L368.855 148.647C370.596 149.666 371.846 150.655 372.604 151.612C373.363 152.57 373.742 153.72 373.742 155.064C373.742 157.227 372.928 158.925 371.299 160.156C369.67 161.387 367.363 162.002 364.379 162.002ZM402.692 161.368L401.274 159.951C401.274 160 400.957 160.212 400.323 160.585C399.688 160.958 398.893 161.306 397.935 161.629C396.978 161.953 395.952 162.114 394.857 162.114C391.624 162.114 389.28 161.579 387.825 160.51C386.37 159.441 385.643 158.048 385.643 156.332C385.643 154.79 386.165 153.453 387.21 152.322C388.254 151.19 389.697 150.151 391.537 149.206C390.667 148.435 389.759 147.385 388.814 146.054C387.869 144.724 387.396 143.312 387.396 141.82C387.396 139.979 388.055 138.549 389.373 137.53C390.692 136.51 392.519 136 394.857 136C397.071 136 398.774 136.472 399.968 137.418C401.162 138.363 401.759 139.631 401.759 141.223C401.759 142.641 401.237 143.953 400.192 145.159C399.148 146.365 397.742 147.54 395.977 148.684L402.878 156.145C403.55 155.399 404.296 154.392 405.117 153.124C405.39 152.726 405.689 152.228 406.012 151.631L407.43 152.564C407.206 153.111 406.932 153.646 406.609 154.168C405.863 155.437 405.042 156.556 404.147 157.526L407.765 161.368H402.692ZM394.857 137.492C393.962 137.492 393.303 137.816 392.88 138.462C392.457 139.109 392.246 140.228 392.246 141.82C392.246 143.809 393.029 145.588 394.596 147.155C395.467 146.359 396.132 145.519 396.592 144.636C397.052 143.753 397.282 142.74 397.282 141.596C397.282 140.178 397.04 139.14 396.555 138.481C396.07 137.822 395.504 137.492 394.857 137.492ZM395.193 160.622C396.163 160.622 397.083 160.435 397.954 160.062C398.824 159.689 399.558 159.229 400.155 158.682L393.029 150.997C391.338 152.489 390.492 154.143 390.492 155.959C390.492 157.401 390.89 158.539 391.686 159.372C392.482 160.206 393.651 160.622 395.193 160.622ZM431.193 162.114C428.632 162.114 426.424 161.561 424.572 160.454C422.719 159.347 421.307 157.837 420.337 155.922C419.367 154.006 418.882 151.843 418.882 149.43C418.882 146.943 419.417 144.674 420.486 142.622C421.556 140.57 423.03 138.953 424.907 137.772C426.785 136.591 428.88 136 431.193 136C433.382 136 435.21 136.28 436.677 136.839C438.145 137.399 439.264 138.126 440.035 139.022C440.483 139.594 440.756 140.303 440.856 141.148C440.955 141.994 441.005 143.175 441.005 144.692H439.886C439.413 142.404 438.543 140.663 437.274 139.47C436.006 138.276 434.352 137.679 432.313 137.679C429.776 137.679 427.774 138.574 426.306 140.365C424.839 142.155 424.105 145.177 424.105 149.43C424.105 152.589 424.777 155.213 426.12 157.302C427.463 159.391 429.527 160.435 432.313 160.435C434.054 160.435 435.651 159.975 437.106 159.055C438.562 158.135 439.737 156.817 440.632 155.101L441.937 156.108C440.744 158.197 439.301 159.72 437.61 160.678C435.919 161.635 433.78 162.114 431.193 162.114ZM466.261 161.517C464.694 161.517 463.277 161.188 462.008 160.529C460.74 159.87 459.708 158.583 458.912 156.668L458.054 154.579H448.13L445.071 161.368H443.131L454.137 136.746H455.816L464.172 156.668C465.117 158.981 466.41 160.224 468.052 160.398V161.331C467.604 161.455 467.007 161.517 466.261 161.517ZM457.345 152.9L453.241 143.163L448.914 152.9H457.345ZM490.51 161.741C488.943 161.741 487.445 161.424 486.015 160.79C484.585 160.156 483.049 158.981 481.407 157.264L475.401 150.997V161.368H470.551L470.514 141.596C470.514 140.328 470.34 139.389 469.992 138.779C469.644 138.17 468.947 137.865 467.903 137.865H467.53V136.746H472.006C472.877 136.746 473.555 136.895 474.04 137.194C474.525 137.492 474.873 137.99 475.084 138.686C475.296 139.382 475.401 140.353 475.401 141.596V148.684L481.855 140.663C482.775 139.47 483.764 138.518 484.821 137.809C485.878 137.101 487.09 136.746 488.459 136.746H491.07V138.052C489.528 138.052 488.203 138.245 487.097 138.63C485.99 139.016 485.039 139.706 484.243 140.701L478.684 147.565L487.302 156.518C488.222 157.538 489.261 158.427 490.417 159.186C491.574 159.944 492.512 160.373 493.234 160.473V161.368C492.488 161.617 491.58 161.741 490.51 161.741ZM496.367 141.596C496.367 140.328 496.193 139.389 495.845 138.779C495.497 138.17 494.8 137.865 493.756 137.865H493.383V136.746H509.835C511.949 136.746 513.006 137.741 513.006 139.731V142.902H511.887C511.887 141.36 511.495 140.228 510.712 139.507C509.928 138.786 508.765 138.425 507.224 138.425H501.217V147.751H510.916V149.43H501.217V159.689H507.597C509.014 159.689 510.195 159.372 511.141 158.738C512.085 158.104 512.869 157.003 513.491 155.437L514.498 155.81L513.416 158.757C513.093 159.652 512.707 160.311 512.26 160.734C511.812 161.157 511.116 161.368 510.17 161.368H496.367V141.596ZM525.392 162.002C523.999 162.002 522.656 161.822 521.362 161.462C520.069 161.101 519.012 160.579 518.191 159.895C517.371 159.211 516.96 158.421 516.96 157.526V153.161H518.005C518.378 155.698 519.162 157.526 520.355 158.645C521.549 159.764 523.215 160.324 525.354 160.324C526.797 160.324 527.941 160.013 528.786 159.391C529.632 158.769 530.055 157.874 530.055 156.705C530.055 155.71 529.744 154.864 529.122 154.168C528.5 153.472 527.531 152.713 526.212 151.893L521.624 149.132C519.957 148.162 518.77 147.155 518.061 146.11C517.352 145.065 516.998 143.847 516.998 142.454C516.998 140.489 517.75 138.935 519.255 137.791C520.76 136.647 522.793 136.074 525.354 136.074C526.747 136.074 528.09 136.255 529.383 136.616C530.677 136.976 531.734 137.499 532.554 138.182C533.375 138.866 533.786 139.656 533.786 140.551V144.916H532.741C532.318 142.379 531.535 140.551 530.391 139.432C529.246 138.313 527.705 137.753 525.765 137.753C524.422 137.753 523.358 138.077 522.575 138.723C521.792 139.37 521.4 140.253 521.4 141.372C521.4 142.342 521.704 143.144 522.314 143.778C522.923 144.412 523.912 145.128 525.28 145.924L529.868 148.647C531.609 149.666 532.859 150.655 533.617 151.612C534.376 152.57 534.755 153.72 534.755 155.064C534.755 157.227 533.941 158.925 532.312 160.156C530.683 161.387 528.376 162.002 525.392 162.002Z" fill="black"/>
<path d="M197.574 52.5244H218.303V109.19H197.574V52.5244ZM242.782 76.0826C246.202 82.5237 249.761 88.4262 253.441 93.7734C257.139 99.1377 261.011 103.964 265.073 108.27L248.615 120.544C242.816 114.033 237.469 106.829 232.556 98.9468C227.626 91.065 223.025 82.2807 218.703 72.6107C224.883 68.6177 229.414 65.128 232.313 62.1248C235.195 59.1212 236.636 56.465 236.636 54.1213C236.636 52.6284 236.115 51.4824 235.091 50.6494C234.049 49.816 232.556 49.3991 230.629 49.3991H193.928L198.651 32.0038H234.796C247.55 32.0038 259.24 37.1731 259.24 51.5694C259.24 56.3784 257.868 60.8054 255.142 64.8328C252.417 68.8781 248.303 72.6107 242.782 76.0826ZM313.978 32.0038H326.374L331.079 49.3991H315.35C307.832 49.3991 301.843 50.7881 297.416 53.5831C293.007 56.3784 289.673 60.8401 287.434 67.003H307.121V52.5244H327.954V109.19H307.121V84.8152H285.35C285.559 89.0165 286.323 93.1483 287.642 97.2109C288.961 101.256 290.836 105.249 293.267 109.19L276.809 120.023C272.677 113.686 269.587 107.315 267.521 100.926C265.455 94.5373 264.413 88.0966 264.413 81.586C264.413 74.2253 265.646 67.3156 268.094 60.8402C270.559 54.3643 274.014 48.8783 278.493 44.4166C282.66 40.2327 287.677 37.1251 293.51 35.0766C299.361 33.0281 306.183 32.0038 313.978 32.0038ZM341.721 32.0038H360.992L377.658 57.8365L394.203 32.0038H413.595V109.19H393.074L393.89 62.9756L377.658 85.4403L361.373 62.9756L362.241 109.19H341.721V32.0038ZM478.472 49.1909H447.535V61.1697H475.763L470.625 78.5654H447.535V91.7941H481.076L475.503 109.19H426.806V32.0038H473.784L478.472 49.1909ZM533.887 49.6078H513.557C512.168 49.6078 511.179 49.816 510.554 50.2152C509.929 50.632 509.617 51.2916 509.617 52.1945C509.617 52.7153 509.756 53.2361 510.05 53.7743C510.328 54.3299 510.815 54.972 511.474 55.7185L528.383 74.5897C530.953 77.5063 532.863 80.3361 534.113 83.0793C535.345 85.8394 535.97 88.6348 535.97 91.4819C535.97 94.2943 535.38 96.9157 534.182 99.3464C533.002 101.777 531.335 103.756 529.199 105.318C527.307 106.707 524.946 107.714 522.134 108.304C519.321 108.895 515.016 109.19 509.217 109.19H491.388L486.284 91.3776H508.801C509.981 91.3776 510.884 91.1346 511.492 90.6659C512.117 90.1973 512.429 89.4852 512.429 88.5305C512.429 88.1484 512.29 87.6971 511.995 87.1241C511.717 86.5685 511.335 85.9959 510.866 85.423L492.395 64.8158C490.502 62.6456 489.044 60.2845 488.02 57.7152C486.996 55.1285 486.492 52.5414 486.492 49.9373C486.492 47.8367 486.804 45.8403 487.412 43.9479C488.02 42.0385 488.923 40.3022 490.103 38.705C491.943 36.3091 494.339 34.5906 497.29 33.5489C500.242 32.5247 504.599 32.0038 510.363 32.0038H529.199L533.887 49.6078ZM565.223 32.0038V56.1702H585.952V32.0038H606.68V109.19H585.952V73.9823H565.223V92.9574C565.223 97.7491 565.31 101.343 565.484 103.773C565.64 106.204 565.935 108.009 566.351 109.19L548.453 120.648C546.994 118.478 545.953 115.492 545.328 111.707C544.703 107.94 544.39 102.159 544.39 94.3812V32.0038H565.223Z" fill="#E5D4C6"/>
</svg>
