<svg width="277" height="48" viewBox="0 0 277 48" fill="none" xmlns="http://www.w3.org/2000/svg">
<path d="M17.6104 33.7802H7.56988C4.85244 33.7802 3.51911 30.4398 5.47554 28.5538C14.3997 19.9511 26.9306 7.58084 31.4429 3.06851C37.0003 -2.48885 44.6051 0.752939 47.7128 3.06851L58.4489 13.5022C59.6724 14.6912 59.6594 16.6597 58.4203 17.8325L52.6092 23.3323C51.4155 24.462 49.535 24.421 48.3918 23.2402L41.3959 16.0149C40.2412 14.8225 38.3378 14.7942 37.1483 15.9518L19.7027 32.9301C19.1426 33.4752 18.3919 33.7802 17.6104 33.7802Z" fill="#0F4D71"/>
<path d="M72.3311 14.2198H82.3715C85.089 14.2198 86.4223 17.5602 84.4659 19.4462C75.5417 28.0489 63.0108 40.4192 58.4985 44.9315C52.9411 50.4889 45.3363 47.2471 42.2286 44.9315L31.4925 34.4978C30.269 33.3088 30.282 31.3403 31.5211 30.1675L37.3322 24.6677C38.5259 23.538 40.4064 23.579 41.5496 24.7598L48.5456 31.9851C49.7002 33.1775 51.6036 33.2058 52.7931 32.0482L70.2387 15.0699C70.7988 14.5248 71.5495 14.2198 72.3311 14.2198Z" fill="#0F4D71"/>
<path d="M111.209 37.432C109.193 37.432 107.261 37.168 105.413 36.64C103.565 36.088 102.077 35.38 100.949 34.516L102.929 30.124C104.009 30.892 105.281 31.528 106.745 32.032C108.233 32.512 109.733 32.752 111.245 32.752C112.397 32.752 113.321 32.644 114.017 32.428C114.737 32.188 115.265 31.864 115.601 31.456C115.937 31.048 116.105 30.58 116.105 30.052C116.105 29.38 115.841 28.852 115.313 28.468C114.785 28.06 114.089 27.736 113.225 27.496C112.361 27.232 111.401 26.992 110.345 26.776C109.313 26.536 108.269 26.248 107.213 25.912C106.181 25.576 105.233 25.144 104.369 24.616C103.505 24.088 102.797 23.392 102.245 22.528C101.717 21.664 101.453 20.56 101.453 19.216C101.453 17.776 101.837 16.468 102.605 15.292C103.397 14.092 104.573 13.144 106.133 12.448C107.717 11.728 109.697 11.368 112.073 11.368C113.657 11.368 115.217 11.56 116.753 11.944C118.289 12.304 119.645 12.856 120.821 13.6L119.021 18.028C117.845 17.356 116.669 16.864 115.493 16.552C114.317 16.216 113.165 16.048 112.037 16.048C110.909 16.048 109.985 16.18 109.265 16.444C108.545 16.708 108.029 17.056 107.717 17.488C107.405 17.896 107.249 18.376 107.249 18.928C107.249 19.576 107.513 20.104 108.041 20.512C108.569 20.896 109.265 21.208 110.129 21.448C110.993 21.688 111.941 21.928 112.973 22.168C114.029 22.408 115.073 22.684 116.105 22.996C117.161 23.308 118.121 23.728 118.985 24.256C119.849 24.784 120.545 25.48 121.073 26.344C121.625 27.208 121.901 28.3 121.901 29.62C121.901 31.036 121.505 32.332 120.713 33.508C119.921 34.684 118.733 35.632 117.149 36.352C115.589 37.072 113.609 37.432 111.209 37.432ZM134.706 37.288C132.642 37.288 130.806 36.856 129.198 35.992C127.614 35.128 126.354 33.952 125.418 32.464C124.506 30.952 124.05 29.236 124.05 27.316C124.05 25.372 124.506 23.656 125.418 22.168C126.354 20.656 127.614 19.48 129.198 18.64C130.806 17.776 132.642 17.344 134.706 17.344C136.746 17.344 138.57 17.776 140.178 18.64C141.786 19.48 143.046 20.644 143.958 22.132C144.87 23.62 145.326 25.348 145.326 27.316C145.326 29.236 144.87 30.952 143.958 32.464C143.046 33.952 141.786 35.128 140.178 35.992C138.57 36.856 136.746 37.288 134.706 37.288ZM134.706 32.68C135.642 32.68 136.482 32.464 137.226 32.032C137.97 31.6 138.558 30.988 138.99 30.196C139.422 29.38 139.638 28.42 139.638 27.316C139.638 26.188 139.422 25.228 138.99 24.436C138.558 23.644 137.97 23.032 137.226 22.6C136.482 22.168 135.642 21.952 134.706 21.952C133.77 21.952 132.93 22.168 132.186 22.6C131.442 23.032 130.842 23.644 130.386 24.436C129.954 25.228 129.738 26.188 129.738 27.316C129.738 28.42 129.954 29.38 130.386 30.196C130.842 30.988 131.442 31.6 132.186 32.032C132.93 32.464 133.77 32.68 134.706 32.68ZM149.08 37V10.288H154.696V37H149.08ZM168.08 37.288C166.472 37.288 165.032 36.976 163.76 36.352C162.512 35.728 161.54 34.78 160.844 33.508C160.148 32.212 159.8 30.568 159.8 28.576V17.632H165.416V27.748C165.416 29.356 165.752 30.544 166.424 31.312C167.12 32.056 168.092 32.428 169.34 32.428C170.204 32.428 170.972 32.248 171.644 31.888C172.316 31.504 172.844 30.928 173.228 30.16C173.612 29.368 173.804 28.384 173.804 27.208V17.632H179.42V37H174.092V31.672L175.064 33.22C174.416 34.564 173.456 35.584 172.184 36.28C170.936 36.952 169.568 37.288 168.08 37.288ZM192.543 37.288C190.263 37.288 188.487 36.712 187.215 35.56C185.943 34.384 185.307 32.644 185.307 30.34V13.348H190.923V30.268C190.923 31.084 191.139 31.72 191.571 32.176C192.003 32.608 192.591 32.824 193.335 32.824C194.223 32.824 194.979 32.584 195.603 32.104L197.115 36.064C196.539 36.472 195.843 36.784 195.027 37C194.235 37.192 193.407 37.288 192.543 37.288ZM182.319 22.384V18.064H195.747V22.384H182.319ZM200.268 37V17.632H205.884V37H200.268ZM203.076 14.932C202.044 14.932 201.204 14.632 200.556 14.032C199.908 13.432 199.584 12.688 199.584 11.8C199.584 10.912 199.908 10.168 200.556 9.568C201.204 8.968 202.044 8.668 203.076 8.668C204.108 8.668 204.948 8.956 205.596 9.532C206.244 10.084 206.568 10.804 206.568 11.692C206.568 12.628 206.244 13.408 205.596 14.032C204.972 14.632 204.132 14.932 203.076 14.932ZM220.312 37.288C218.248 37.288 216.412 36.856 214.804 35.992C213.22 35.128 211.96 33.952 211.024 32.464C210.112 30.952 209.656 29.236 209.656 27.316C209.656 25.372 210.112 23.656 211.024 22.168C211.96 20.656 213.22 19.48 214.804 18.64C216.412 17.776 218.248 17.344 220.312 17.344C222.352 17.344 224.176 17.776 225.784 18.64C227.392 19.48 228.652 20.644 229.564 22.132C230.476 23.62 230.932 25.348 230.932 27.316C230.932 29.236 230.476 30.952 229.564 32.464C228.652 33.952 227.392 35.128 225.784 35.992C224.176 36.856 222.352 37.288 220.312 37.288ZM220.312 32.68C221.248 32.68 222.088 32.464 222.832 32.032C223.576 31.6 224.164 30.988 224.596 30.196C225.028 29.38 225.244 28.42 225.244 27.316C225.244 26.188 225.028 25.228 224.596 24.436C224.164 23.644 223.576 23.032 222.832 22.6C222.088 22.168 221.248 21.952 220.312 21.952C219.376 21.952 218.536 22.168 217.792 22.6C217.048 23.032 216.448 23.644 215.992 24.436C215.56 25.228 215.344 26.188 215.344 27.316C215.344 28.42 215.56 29.38 215.992 30.196C216.448 30.988 217.048 31.6 217.792 32.032C218.536 32.464 219.376 32.68 220.312 32.68ZM246.458 17.344C247.994 17.344 249.362 17.656 250.562 18.28C251.786 18.88 252.746 19.816 253.442 21.088C254.138 22.336 254.486 23.944 254.486 25.912V37H248.87V26.776C248.87 25.216 248.522 24.064 247.826 23.32C247.154 22.576 246.194 22.204 244.946 22.204C244.058 22.204 243.254 22.396 242.534 22.78C241.838 23.14 241.286 23.704 240.878 24.472C240.494 25.24 240.302 26.224 240.302 27.424V37H234.686V17.632H240.05V22.996L239.042 21.376C239.738 20.08 240.734 19.084 242.03 18.388C243.326 17.692 244.802 17.344 246.458 17.344ZM266.092 37.288C264.436 37.288 262.84 37.096 261.304 36.712C259.792 36.304 258.592 35.8 257.704 35.2L259.576 31.168C260.464 31.72 261.508 32.176 262.708 32.536C263.932 32.872 265.132 33.04 266.308 33.04C267.604 33.04 268.516 32.884 269.044 32.572C269.596 32.26 269.872 31.828 269.872 31.276C269.872 30.82 269.656 30.484 269.224 30.268C268.816 30.028 268.264 29.848 267.568 29.728C266.872 29.608 266.104 29.488 265.264 29.368C264.448 29.248 263.62 29.092 262.78 28.9C261.94 28.684 261.172 28.372 260.476 27.964C259.78 27.556 259.216 27.004 258.784 26.308C258.376 25.612 258.172 24.712 258.172 23.608C258.172 22.384 258.52 21.304 259.216 20.368C259.936 19.432 260.968 18.7 262.312 18.172C263.656 17.62 265.264 17.344 267.136 17.344C268.456 17.344 269.8 17.488 271.168 17.776C272.536 18.064 273.676 18.484 274.588 19.036L272.716 23.032C271.78 22.48 270.832 22.108 269.872 21.916C268.936 21.7 268.024 21.592 267.136 21.592C265.888 21.592 264.976 21.76 264.4 22.096C263.824 22.432 263.536 22.864 263.536 23.392C263.536 23.872 263.74 24.232 264.148 24.472C264.58 24.712 265.144 24.904 265.84 25.048C266.536 25.192 267.292 25.324 268.108 25.444C268.948 25.54 269.788 25.696 270.628 25.912C271.468 26.128 272.224 26.44 272.896 26.848C273.592 27.232 274.156 27.772 274.588 28.468C275.02 29.14 275.236 30.028 275.236 31.132C275.236 32.332 274.876 33.4 274.156 34.336C273.436 35.248 272.392 35.968 271.024 36.496C269.68 37.024 268.036 37.288 266.092 37.288Z" fill="#0F4D71"/>
</svg>
